<svg width="14" height="14" viewBox="0 0 14 14" fill="none" xmlns="http://www.w3.org/2000/svg">
<path d="M13.3042 3.7319L11.9917 2.44346C11.8278 2.28016 11.6058 2.18848 11.3743 2.18848C11.1429 2.18848 10.9209 2.28016 10.7569 2.44346L5.68737 7.43753L5.68135 7.43151L3.6776 5.50268C3.5132 5.33998 3.29107 5.24899 3.05978 5.24961C2.82848 5.25022 2.60684 5.34239 2.44331 5.50596L1.13081 6.81846C0.967002 6.98252 0.875 7.20488 0.875 7.43671C0.875 7.66854 0.967002 7.89089 1.13081 8.05495L5.04752 11.9924C5.12878 12.0737 5.22525 12.1382 5.33142 12.1822C5.43759 12.2262 5.55139 12.2488 5.66631 12.2488C5.78124 12.2488 5.89503 12.2262 6.00121 12.1822C6.10738 12.1382 6.20385 12.0737 6.2851 11.9924L13.307 4.97167C13.3884 4.89019 13.4529 4.79345 13.4969 4.68697C13.5408 4.5805 13.5633 4.4664 13.5631 4.35122C13.5628 4.23603 13.5398 4.12203 13.4954 4.01575C13.451 3.90948 13.386 3.81302 13.3042 3.7319ZM5.66659 11.375L1.74987 7.43753L3.06237 6.12503L3.06838 6.13104L5.07213 8.05987C5.23598 8.22218 5.45729 8.31323 5.68792 8.31323C5.91854 8.31323 6.13985 8.22218 6.3037 8.05987L11.3781 3.06253L12.6874 4.35315L5.66659 11.375Z" fill="white"/>
</svg>
