<svg width="24" height="25" viewBox="0 0 24 25" fill="none" xmlns="http://www.w3.org/2000/svg">
<path d="M21 5.44043H3C2.80109 5.44043 2.61032 5.51922 2.46967 5.65946C2.32902 5.79971 2.25 5.98992 2.25 6.18825V18.9013C2.25 19.298 2.40804 19.6784 2.68934 19.9589C2.97064 20.2394 3.35218 20.3969 3.75 20.3969H20.25C20.6478 20.3969 21.0294 20.2394 21.3107 19.9589C21.592 19.6784 21.75 19.298 21.75 18.9013V6.18825C21.75 5.98992 21.671 5.79971 21.5303 5.65946C21.3897 5.51922 21.1989 5.44043 21 5.44043ZM19.0716 6.93608L12 13.4001L4.92844 6.93608H19.0716ZM20.25 18.9013H3.75V7.88862L11.4928 14.9659C11.6312 15.0925 11.8122 15.1628 12 15.1628C12.1878 15.1628 12.3688 15.0925 12.5072 14.9659L20.25 7.88862V18.9013Z" fill="white"/>
</svg>
