<svg width="26" height="26" viewBox="0 0 26 26" fill="none" xmlns="http://www.w3.org/2000/svg">
<path d="M13 2.4375C10.9109 2.4375 8.86879 3.05698 7.13179 4.2176C5.3948 5.37822 4.04098 7.02786 3.24153 8.95791C2.44208 10.8879 2.2329 13.0117 2.64046 15.0606C3.04802 17.1096 4.054 18.9916 5.53119 20.4688C7.00838 21.946 8.89044 22.952 10.9394 23.3595C12.9883 23.7671 15.1121 23.5579 17.0421 22.7585C18.9721 21.959 20.6218 20.6052 21.7824 18.8682C22.943 17.1312 23.5625 15.0891 23.5625 13C23.5595 10.1996 22.4458 7.51466 20.4656 5.53445C18.4853 3.55424 15.8004 2.44046 13 2.4375ZM13.8125 21.8999V15.4375H16.25C16.4655 15.4375 16.6722 15.3519 16.8245 15.1995C16.9769 15.0472 17.0625 14.8405 17.0625 14.625C17.0625 14.4095 16.9769 14.2028 16.8245 14.0505C16.6722 13.8981 16.4655 13.8125 16.25 13.8125H13.8125V11.375C13.8125 10.944 13.9837 10.5307 14.2885 10.226C14.5932 9.9212 15.0065 9.75 15.4375 9.75H17.0625C17.278 9.75 17.4847 9.6644 17.637 9.51202C17.7894 9.35965 17.875 9.15299 17.875 8.9375C17.875 8.72201 17.7894 8.51535 17.637 8.36298C17.4847 8.2106 17.278 8.125 17.0625 8.125H15.4375C14.5756 8.125 13.7489 8.46741 13.1394 9.0769C12.5299 9.6864 12.1875 10.513 12.1875 11.375V13.8125H9.75C9.53452 13.8125 9.32785 13.8981 9.17548 14.0505C9.02311 14.2028 8.9375 14.4095 8.9375 14.625C8.9375 14.8405 9.02311 15.0472 9.17548 15.1995C9.32785 15.3519 9.53452 15.4375 9.75 15.4375H12.1875V21.8999C9.89706 21.6908 7.77539 20.6068 6.26381 18.8733C4.75223 17.1398 3.96711 14.8903 4.07176 12.5928C4.17641 10.2952 5.16278 8.12637 6.82569 6.53748C8.4886 4.94859 10.7 4.06193 13 4.06193C15.3 4.06193 17.5114 4.94859 19.1743 6.53748C20.8372 8.12637 21.8236 10.2952 21.9282 12.5928C22.0329 14.8903 21.2478 17.1398 19.7362 18.8733C18.2246 20.6068 16.1029 21.6908 13.8125 21.8999Z" fill="white"/>
</svg>
