<svg width="26" height="26" viewBox="0 0 26 26" fill="none" xmlns="http://www.w3.org/2000/svg">
<path d="M13 8.125C12.0358 8.125 11.0933 8.41091 10.2916 8.94659C9.48991 9.48226 8.86506 10.2436 8.49609 11.1344C8.12711 12.0252 8.03057 13.0054 8.21867 13.9511C8.40677 14.8967 8.87107 15.7654 9.55285 16.4471C10.2346 17.1289 11.1033 17.5932 12.0489 17.7813C12.9946 17.9694 13.9748 17.8729 14.8656 17.5039C15.7564 17.1349 16.5177 16.5101 17.0534 15.7084C17.5891 14.9067 17.875 13.9642 17.875 13C17.8737 11.7075 17.3596 10.4683 16.4457 9.55434C15.5317 8.64039 14.2925 8.12634 13 8.125ZM13 16.25C12.3572 16.25 11.7289 16.0594 11.1944 15.7023C10.6599 15.3452 10.2434 14.8376 9.99739 14.2437C9.75141 13.6499 9.68705 12.9964 9.81245 12.366C9.93785 11.7355 10.2474 11.1564 10.7019 10.7019C11.1564 10.2474 11.7355 9.93785 12.366 9.81245C12.9964 9.68705 13.6499 9.75141 14.2437 9.99739C14.8376 10.2434 15.3452 10.6599 15.7023 11.1944C16.0594 11.7289 16.25 12.3572 16.25 13C16.25 13.862 15.9076 14.6886 15.2981 15.2981C14.6886 15.9076 13.862 16.25 13 16.25ZM17.875 2.4375H8.125C6.61708 2.43911 5.17138 3.03885 4.10511 4.10511C3.03885 5.17138 2.43911 6.61708 2.4375 8.125V17.875C2.43911 19.3829 3.03885 20.8286 4.10511 21.8949C5.17138 22.9612 6.61708 23.5609 8.125 23.5625H17.875C19.3829 23.5609 20.8286 22.9612 21.8949 21.8949C22.9612 20.8286 23.5609 19.3829 23.5625 17.875V8.125C23.5609 6.61708 22.9612 5.17138 21.8949 4.10511C20.8286 3.03885 19.3829 2.43911 17.875 2.4375ZM21.9375 17.875C21.9375 18.9524 21.5095 19.9858 20.7476 20.7476C19.9858 21.5095 18.9524 21.9375 17.875 21.9375H8.125C7.04756 21.9375 6.01425 21.5095 5.25238 20.7476C4.49051 19.9858 4.0625 18.9524 4.0625 17.875V8.125C4.0625 7.04756 4.49051 6.01425 5.25238 5.25238C6.01425 4.49051 7.04756 4.0625 8.125 4.0625H17.875C18.9524 4.0625 19.9858 4.49051 20.7476 5.25238C21.5095 6.01425 21.9375 7.04756 21.9375 8.125V17.875ZM19.5 7.71875C19.5 7.9598 19.4285 8.19543 19.2946 8.39585C19.1607 8.59627 18.9703 8.75248 18.7476 8.84473C18.5249 8.93697 18.2799 8.96111 18.0435 8.91408C17.8071 8.86706 17.5899 8.75098 17.4195 8.58054C17.249 8.41009 17.1329 8.19293 17.0859 7.95652C17.0389 7.7201 17.063 7.47505 17.1553 7.25235C17.2475 7.02966 17.4037 6.83931 17.6041 6.7054C17.8046 6.57148 18.0402 6.5 18.2812 6.5C18.6045 6.5 18.9145 6.6284 19.143 6.85696C19.3716 7.08552 19.5 7.39552 19.5 7.71875Z" fill="white"/>
</svg>
